<?xml version="1.0" encoding="UTF-8"?>
<svg width="30px" height="34px" viewBox="0 0 30 34" version="1.1" xmlns="http://www.w3.org/2000/svg" xmlns:xlink="http://www.w3.org/1999/xlink">
    <!-- Generator: Sketch 57.1 (83088) - https://sketch.com -->
    <title>Icon - Suggestion Box</title>
    <desc>Created with Sketch.</desc>
    <g id="Desktop" stroke="none" stroke-width="1" fill="none" fill-rule="evenodd">
        <g id="Home-(Admin)" transform="translate(-966.000000, -125.000000)">
            <g id="Avg.-Happiness-2-Copy" transform="translate(849.000000, 79.000000)">
                <g id="Avg.-Happiness">
                    <g id="Icon" transform="translate(96.000000, 25.000000)">
                        <g id="Icon---Surveys" transform="translate(19.000000, 21.000000)">
                            <g id="Group">
                                <rect id="Rectangle" x="0" y="0" width="34" height="34"></rect>
                                <path d="M19.8333333,31.1666667 C20.6157367,31.1666667 21.25,31.8009299 21.25,32.5833333 C21.25,33.3657367 20.6157367,34 19.8333333,34 L8.5,34 C5.37038642,34 2.83333333,31.4629469 2.83333333,28.3333333 L2.83333333,5.66666667 C2.83333333,2.53705308 5.37038642,0 8.5,0 L20.906259,0 C22.4091525,0 23.8504913,0.597022095 24.9131975,1.65972824 L29.5069384,6.25346921 C30.5696446,7.31617536 31.1666667,8.7575142 31.1666667,10.2604076 L31.1666667,28.3393817 C31.1666667,31.4656572 28.6323196,34 25.506044,34 C24.7155798,33.9988843 24.0822205,33.3637184 24.0833348,32.5813158 C24.084449,31.7989132 24.7196149,31.1655538 25.5020175,31.1666681 C27.0675128,31.166671 28.3333333,29.9008504 28.3333333,28.3393817 L28.3333333,10.2604076 C28.3333333,9.50896092 28.0348223,8.7882915 27.5034692,8.25693843 L22.9097282,3.66319745 C22.3783752,3.13184438 21.6577057,2.83333333 20.906259,2.83333333 L8.5,2.83333333 C6.93519321,2.83333333 5.66666667,4.10185988 5.66666667,5.66666667 L5.66666667,28.3333333 C5.66666667,29.8981401 6.93519321,31.1666667 8.5,31.1666667 L19.8333333,31.1666667 Z M21.25,9.91666667 L24.0833333,9.91666667 C24.8657367,9.91666667 25.5,10.5509299 25.5,11.3333333 C25.5,12.1157367 24.8657367,12.75 24.0833333,12.75 L19.8333333,12.75 C19.0509299,12.75 18.4166667,12.1157367 18.4166667,11.3333333 L18.4166667,7.08333333 C18.4166667,6.30092994 19.0509299,5.66666667 19.8333333,5.66666667 C20.6157367,5.66666667 21.25,6.30092994 21.25,7.08333333 L21.25,9.91666667 Z M9.91666667,24.0833333 C9.13426327,24.0833333 8.5,23.4490701 8.5,22.6666667 C8.5,21.8842633 9.13426327,21.25 9.91666667,21.25 L24.0833333,21.25 C24.8657367,21.25 25.5,21.8842633 25.5,22.6666667 C25.5,23.4490701 24.8657367,24.0833333 24.0833333,24.0833333 L9.91666667,24.0833333 Z M9.91666667,19.8333333 C9.13426327,19.8333333 8.5,19.1990701 8.5,18.4166667 C8.5,17.6342633 9.13426327,17 9.91666667,17 L24.0833333,17 C24.8657367,17 25.5,17.6342633 25.5,18.4166667 C25.5,19.1990701 24.8657367,19.8333333 24.0833333,19.8333333 L9.91666667,19.8333333 Z M9.91666667,28.3333333 C9.13426327,28.3333333 8.5,27.6990701 8.5,26.9166667 C8.5,26.1342633 9.13426327,25.5 9.91666667,25.5 L19.8333333,25.5 C20.6157367,25.5 21.25,26.1342633 21.25,26.9166667 C21.25,27.6990701 20.6157367,28.3333333 19.8333333,28.3333333 L9.91666667,28.3333333 Z" id="Combined-Shape" fill="#4767E6"></path>
                            </g>
                        </g>
                    </g>
                </g>
            </g>
        </g>
    </g>
</svg>