<?xml version="1.0" encoding="UTF-8"?>
<svg width="32px" height="32px" viewBox="0 0 32 32" version="1.1" xmlns="http://www.w3.org/2000/svg" xmlns:xlink="http://www.w3.org/1999/xlink">
    <!-- Generator: Sketch 57.1 (83088) - https://sketch.com -->
    <title>Icon - Suggestion Box</title>
    <desc>Created with Sketch.</desc>
    <g id="Desktop" stroke="none" stroke-width="1" fill="none" fill-rule="evenodd">
        <g id="Home-(Admin)" transform="translate(-393.000000, -126.000000)">
            <g id="Avg.-Happiness-2" transform="translate(277.000000, 79.000000)">
                <g id="Avg.-Happiness">
                    <g id="Icon" transform="translate(96.000000, 25.000000)">
                        <g id="Icon---Suggestion-Box" transform="translate(19.000000, 21.000000)">
                            <g id="Group" stroke-width="1">
                                <rect id="Rectangle" x="0" y="0" width="34" height="34"></rect>
                            </g>
                            <path d="M26.5017346,30.1649321 C27.0549774,30.7181748 27.0549774,31.6151585 26.5017346,32.1684013 C25.9484919,32.721644 25.0515081,32.721644 24.4982654,32.1684013 L20.491327,28.1614628 C19.6942974,27.3644332 18.6132932,26.9166667 17.4861231,26.9166667 L7.08333333,26.9166667 C3.95371975,26.9166667 1.41666667,24.3796136 1.41666667,21.25 L1.41666667,7.08333333 C1.41666667,3.95371975 3.95371975,1.41666667 7.08333333,1.41666667 L26.9166667,1.41666667 C30.0462802,1.41666667 32.5833333,3.95371975 32.5833333,7.08333333 L32.5833333,21.25 C32.5833333,24.3796136 30.0462802,26.9166667 26.9166667,26.9166667 C26.1342633,26.9166667 25.5,26.2824034 25.5,25.5 C25.5,24.7175966 26.1342633,24.0833333 26.9166667,24.0833333 C28.4814735,24.0833333 29.75,22.8148068 29.75,21.25 L29.75,7.08333333 C29.75,5.51852654 28.4814735,4.25 26.9166667,4.25 L7.08333333,4.25 C5.51852654,4.25 4.25,5.51852654 4.25,7.08333333 L4.25,21.25 C4.25,22.8148068 5.51852654,24.0833333 7.08333333,24.0833333 L17.4861231,24.0833333 C19.3647399,24.0833333 21.1664135,24.829611 22.4947962,26.1579936 L26.5017346,30.1649321 Z M11.3333333,12.75 C10.5509299,12.75 9.91666667,12.1157367 9.91666667,11.3333333 C9.91666667,10.5509299 10.5509299,9.91666667 11.3333333,9.91666667 L22.6666667,9.91666667 C23.4490701,9.91666667 24.0833333,10.5509299 24.0833333,11.3333333 C24.0833333,12.1157367 23.4490701,12.75 22.6666667,12.75 L11.3333333,12.75 Z M11.3333333,18.4166667 C10.5509299,18.4166667 9.91666667,17.7824034 9.91666667,17 C9.91666667,16.2175966 10.5509299,15.5833333 11.3333333,15.5833333 L18.4166667,15.5833333 C19.1990701,15.5833333 19.8333333,16.2175966 19.8333333,17 C19.8333333,17.7824034 19.1990701,18.4166667 18.4166667,18.4166667 L11.3333333,18.4166667 Z" id="Combined-Shape" fill="#197858"></path>
                        </g>
                    </g>
                </g>
            </g>
        </g>
    </g>
</svg>