<svg xmlns="http://www.w3.org/2000/svg" width="16" height="16" viewBox="0 0 16 16">
    <g fill="none" fill-rule="evenodd">
        <path d="M0 0h16v16H0z"/>
        <path fill="#197858" d="M4.976 14.08l9.622-9.62a4.433 4.433 0 0 0-3.057-3.058l-.952.952c.975.405 1.816 1.072 2.327 1.988a.667.667 0 0 1-1.165.65c-.484-.868-1.466-1.455-2.548-1.671a.667.667 0 0 1-.341-1.125l2-2a.667.667 0 0 1 .602-.183 5.766 5.766 0 0 1 4.523 4.523.667.667 0 0 1-.182.602l-9.886 9.886A3.333 3.333 0 0 1 3.562 16H.667A.667.667 0 0 1 0 15.333v-2.895c0-.884.351-1.732.976-2.357l6.22-6.22a.667.667 0 1 1 .942.944L1.92 11.024a2 2 0 0 0-.586 1.414v2.229h2.23a2 2 0 0 0 1.413-.586zm-.505-1.609a.667.667 0 1 1-.942-.942l6.333-6.334a.667.667 0 0 1 .943.943L4.47 12.471z"/>
    </g>
</svg>
