<svg xmlns="http://www.w3.org/2000/svg" width="16" height="16" viewBox="0 0 16 16">
    <g fill="none" fill-rule="evenodd">
        <path d="M-.667 0h16v16h-16z"/>
        <path fill="#C2C7D0" d="M13.443 6.676c.363.06.608.404.548.767l-1.055 6.329A2.667 2.667 0 0 1 10.306 16H5.694a2.667 2.667 0 0 1-2.63-2.228l-1.055-6.33a.667.667 0 1 1 1.315-.218l1.055 6.329a1.333 1.333 0 0 0 1.315 1.114h4.612c.652 0 1.208-.472 1.315-1.114l1.055-6.33a.667.667 0 0 1 .767-.547zm-3.36-.004a.667.667 0 0 1 .579.744l-.667 5.333a.667.667 0 0 1-1.323-.165l.666-5.333a.667.667 0 0 1 .745-.58zm-3.421.579l.666 5.333a.667.667 0 0 1-1.323.165l-.667-5.333a.667.667 0 1 1 1.324-.165zM8.78 0a2 2 0 0 1 1.414.586l.747.747h2.391a2 2 0 0 1 2 2v1.331a.667.667 0 0 1-.666.667H4a.667.667 0 0 1 0-1.333h10v-.665a.667.667 0 0 0-.667-.666h-2.667a.667.667 0 0 1-.471-.196l-.943-.942a.667.667 0 0 0-.471-.196H7.219a.667.667 0 0 0-.471.196l-.943.942a.667.667 0 0 1-.472.196H2.667A.667.667 0 0 0 2 3.333v1.331a.667.667 0 0 1-1.333 0v-1.33a2 2 0 0 1 2-2h2.39l.748-.748A2 2 0 0 1 7.219 0h1.562z"/>
    </g>
</svg>
