<?xml version="1.0" encoding="UTF-8"?>
<svg width="24px" height="24px" viewBox="0 0 24 24" version="1.1" xmlns="http://www.w3.org/2000/svg" xmlns:xlink="http://www.w3.org/1999/xlink">
    <!-- Generator: Sketch 56.3 (81716) - https://sketch.com -->
    <title>Icon - Back</title>
    <desc>Created with Sketch.</desc>
    <g id="Icon---Back" stroke="none" stroke-width="1" fill="none" fill-rule="evenodd">
        <g id="Group">
            <rect id="Rectangle" x="0" y="0" width="24" height="24"></rect>
        </g>
        <path d="M2.41421356,12 L10.7071068,20.2928932 C11.0976311,20.6834175 11.0976311,21.3165825 10.7071068,21.7071068 C10.3165825,22.0976311 9.68341751,22.0976311 9.29289322,21.7071068 L0.292893219,12.7071068 C-0.0976310729,12.3165825 -0.0976310729,11.6834175 0.292893219,11.2928932 L9.29289322,2.29289322 C9.68341751,1.90236893 10.3165825,1.90236893 10.7071068,2.29289322 C11.0976311,2.68341751 11.0976311,3.31658249 10.7071068,3.70710678 L2.41421356,12 Z M6,13 C5.44771525,13 5,12.5522847 5,12 C5,11.4477153 5.44771525,11 6,11 L23,11 C23.5522847,11 24,11.4477153 24,12 C24,12.5522847 23.5522847,13 23,13 L6,13 Z" id="Combined-Shape" fill="#111816" fill-rule="nonzero"></path>
    </g>
</svg>