<svg xmlns="http://www.w3.org/2000/svg" width="16" height="16" viewBox="0 0 16 16">
    <g fill="none" fill-rule="evenodd">
        <path d="M.667 0h16v16h-16z"/>
        <path fill="#197858" d="M7.333 13.588l.965-.482a.667.667 0 0 0 .369-.597v-2.26c0-.742.247-1.462.702-2.047l1.771-2.278a.667.667 0 1 1 1.053.819L10.42 9.02A2 2 0 0 0 10 10.248v2.261a2 2 0 0 1-1.106 1.79l-1.93.964A.667.667 0 0 1 6 14.667v-4.419a2 2 0 0 0-.421-1.228L2.035 4.465a3.333 3.333 0 0 1-.702-2.047V1.333c0-.368.299-.666.667-.666h12c.368 0 .667.298.667.666v1.334a2 2 0 0 1-2 2h-2a.667.667 0 1 1 0-1.334h2a.667.667 0 0 0 .666-.666V2H2.667v.418a2 2 0 0 0 .421 1.228l3.543 4.556c.455.585.702 1.305.702 2.046v3.34zM6 4.667a.667.667 0 0 1 0-1.334h2a.667.667 0 0 1 0 1.334H6z"/>
    </g>
</svg>
