<svg xmlns="http://www.w3.org/2000/svg" width="22" height="22" viewBox="0 0 22 22">
    <g fill="none" fill-rule="evenodd">
        <path d="M3.32 1.32h15v15h-15z"/>
        <path fill="#FFF" fill-rule="nonzero" d="M7.985 14.52l9.02-9.02a4.156 4.156 0 0 0-2.865-2.866l-.893.893c.914.38 1.702 1.005 2.181 1.864A.625.625 0 1 1 14.337 6c-.454-.814-1.374-1.364-2.39-1.567a.625.625 0 0 1-.319-1.055l1.875-1.875a.625.625 0 0 1 .565-.17 5.405 5.405 0 0 1 4.24 4.24.625.625 0 0 1-.171.564l-9.268 9.268a3.125 3.125 0 0 1-2.21.915H3.945a.625.625 0 0 1-.625-.625v-2.714c0-.83.33-1.624.915-2.21l5.83-5.83a.625.625 0 0 1 .884.883l-5.83 5.83c-.351.352-.549.83-.549 1.327v2.089h2.09c.497 0 .974-.198 1.325-.55zm-.473-1.508a.625.625 0 1 1-.884-.884l5.938-5.937a.625.625 0 1 1 .883.883l-5.937 5.938z"/>
    </g>
</svg>
