<svg xmlns="http://www.w3.org/2000/svg" width="24" height="20" viewBox="0 0 24 20">
    <path fill="#111816" fill-rule="nonzero" d="M16 18a1 1 0 0 1 0 2H4a4 4 0 0 1-4-4V4a4 4 0 0 1 4-4h16a4 4 0 0 1 4 4v12.004A3.996 3.996 0 0 1 20.004 20a1.001 1.001 0 1 1-.003-2A1.996 1.996 0 0 0 22 16.004V4a2 2 0 0 0-2-2H4a2 2 0 0 0-2 2v12a2 2 0 0 0 2 2h12zm-4-8.317l6.35-5.442a1 1 0 0 1 1.3 1.518l-7 6a1 1 0 0 1-1.3 0l-7-6a1 1 0 1 1 1.3-1.518L12 9.683zm-6.293 6.024a1 1 0 1 1-1.414-1.414l3-3a1 1 0 1 1 1.414 1.414l-3 3zm14-1.414a1 1 0 0 1-1.414 1.414l-3-3a1 1 0 0 1 1.414-1.414l3 3z"/>
</svg>
