<?xml version="1.0" encoding="UTF-8"?>
<svg width="24px" height="24px" viewBox="0 0 24 24" version="1.1" xmlns="http://www.w3.org/2000/svg" xmlns:xlink="http://www.w3.org/1999/xlink">
    <!-- Generator: Sketch 56.3 (81716) - https://sketch.com -->
    <title>Icon - Issue</title>
    <desc>Created with Sketch.</desc>
    <g id="Icon---Issue" stroke="none" stroke-width="1" fill="none" fill-rule="evenodd">
        <g id="Group">
            <rect id="Rectangle" x="0" y="0" width="24" height="24"></rect>
            <path d="M13,13.0002101 C13,13.5524948 12.5522847,14.0002101 12,14.0002101 C11.4477153,14.0002101 11,13.5524948 11,13.0002101 L11,9.00021005 C11,8.4479253 11.4477153,8.00021005 12,8.00021005 C12.5522847,8.00021005 13,8.4479253 13,9.00021005 L13,13.0002101 Z M17,21.0002101 C17.5522847,21.0002101 18,21.4479253 18,22.0002101 C18,22.5524948 17.5522847,23.0002101 17,23.0002101 L2.9885168,23.0002101 C1.33616764,23.0002101 0,21.6530825 0,19.9953825 C0,19.4762342 0.133774298,18.9658461 0.388406883,18.5140168 L9.39971769,2.52401947 C10.2142868,1.07861844 12.0419489,0.571221108 13.479237,1.39456054 C13.9473753,1.66272996 14.3345164,2.05304651 14.5999375,2.52401947 L23.6112483,18.5140168 C24.4231352,19.9546584 23.9230644,21.7856011 22.4905478,22.6062072 C22.0398649,22.8643774 21.5300219,23.0002101 21.0111384,23.0002101 C20.4588537,23.0002101 20.0111384,22.5524948 20.0111384,22.0002101 C20.0111384,21.4479253 20.4588537,21.0002101 21.0111384,21.0002101 C21.1810616,21.0002101 21.3482165,20.9556766 21.496421,20.8707787 C21.9736266,20.5974152 22.142069,19.9806859 21.8688864,19.4959409 L12.8575756,3.50594362 C12.768918,3.34862633 12.6401505,3.21880264 12.4851102,3.12998897 C12.0126761,2.85935873 11.4125799,3.02595801 11.1420796,3.50594362 L2.13076877,19.4959409 C2.04512438,19.6479115 2,19.8200742 2,19.9953825 C2,20.5521538 2.44441096,21.0002101 2.9885168,21.0002101 L17,21.0002101 Z M12,19.0002101 C10.8954305,19.0002101 10,18.1047796 10,17.0002101 C10,15.8956406 10.8954305,15.0002101 12,15.0002101 C13.1045695,15.0002101 14,15.8956406 14,17.0002101 C14,18.1047796 13.1045695,19.0002101 12,19.0002101 Z" id="Combined-Shape" fill="#111816" fill-rule="nonzero"></path>
        </g>
    </g>
</svg>