<?xml version="1.0" encoding="UTF-8"?>
<svg width="24px" height="24px" viewBox="0 0 24 24" version="1.1" xmlns="http://www.w3.org/2000/svg" xmlns:xlink="http://www.w3.org/1999/xlink">
    <!-- Generator: Sketch 56.3 (81716) - https://sketch.com -->
    <title>Icon - Suggestion Box</title>
    <desc>Created with Sketch.</desc>
    <g id="Icon---Suggestion-Box" stroke="none" stroke-width="1" fill="none" fill-rule="evenodd">
        <g id="Group">
            <rect id="Rectangle" x="0" y="0" width="24" height="24"></rect>
        </g>
        <path d="M18.7071068,21.2928932 C19.0976311,21.6834175 19.0976311,22.3165825 18.7071068,22.7071068 C18.3165825,23.0976311 17.6834175,23.0976311 17.2928932,22.7071068 L14.4644661,19.8786797 C13.901857,19.3160705 13.1387952,19 12.3431458,19 L5,19 C2.790861,19 1,17.209139 1,15 L1,5 C1,2.790861 2.790861,1 5,1 L19,1 C21.209139,1 23,2.790861 23,5 L23,15 C23,17.209139 21.209139,19 19,19 C18.4477153,19 18,18.5522847 18,18 C18,17.4477153 18.4477153,17 19,17 C20.1045695,17 21,16.1045695 21,15 L21,5 C21,3.8954305 20.1045695,3 19,3 L5,3 C3.8954305,3 3,3.8954305 3,5 L3,15 C3,16.1045695 3.8954305,17 5,17 L12.3431458,17 C13.6692282,17 14.9409978,17.5267842 15.8786797,18.4644661 L18.7071068,21.2928932 Z M8,9 C7.44771525,9 7,8.55228475 7,8 C7,7.44771525 7.44771525,7 8,7 L16,7 C16.5522847,7 17,7.44771525 17,8 C17,8.55228475 16.5522847,9 16,9 L8,9 Z M8,13 C7.44771525,13 7,12.5522847 7,12 C7,11.4477153 7.44771525,11 8,11 L13,11 C13.5522847,11 14,11.4477153 14,12 C14,12.5522847 13.5522847,13 13,13 L8,13 Z" id="Combined-Shape" fill="#111816" fill-rule="nonzero"></path>
    </g>
</svg>