<?xml version="1.0" encoding="UTF-8"?>
<svg width="20px" height="24px" viewBox="0 0 20 24" version="1.1" xmlns="http://www.w3.org/2000/svg" xmlns:xlink="http://www.w3.org/1999/xlink">
    <!-- Generator: Sketch 56.3 (81716) - https://sketch.com -->
    <title>Icon - Profile</title>
    <desc>Created with Sketch.</desc>
    <g id="Desktop" stroke="none" stroke-width="1" fill="none" fill-rule="evenodd" opacity="0.598116">
        <g id="Home-(User)" transform="translate(-1370.000000, -31.000000)">
            <g id="Report-Issue" transform="translate(1250.000000, 22.000000)">
                <g id="Alerts" transform="translate(110.000000, 0.000000)">
                    <g id="Group-3" transform="translate(8.000000, 8.000000)">
                        <g id="Icon---Alerts" transform="translate(0.000000, 1.000000)">
                            <g id="Group">
                                <rect id="Rectangle" x="0" y="0" width="24" height="24"></rect>
                                <path d="M4.49283514,17.3162278 C4.62894919,17.7245699 5.01108803,18 5.44151844,18 L14,18 C14.5522847,18 15,18.4477153 15,19 C15,19.5522847 14.5522847,20 14,20 L5.44151844,20 C4.15022722,20 3.00381069,19.1737097 2.59546855,17.9486833 L2.0513167,16.3162278 C1.90871346,15.888418 2.07008584,15.4180923 2.4452998,15.1679497 L3.92206023,14.1834428 C4.64749598,13.6998189 5.1266517,12.9245287 5.23479327,12.0593961 L6.00034501,5.93498221 C6.03520906,2.65122454 8.7079912,0 12,0 C15.2920088,0 17.9647909,2.65122454 17.999655,5.93498221 L18.7652067,12.0593961 C18.8733483,12.9245287 19.352504,13.6998189 20.0779398,14.1834428 L21.5547002,15.1679497 C21.9299142,15.4180923 22.0912865,15.888418 21.9486833,16.3162278 L21.4045315,17.9486833 C20.9961893,19.1737097 19.8497728,20 18.5584816,20 L18,20 C17.4477153,20 17,19.5522847 17,19 C17,18.4477153 17.4477153,18 18,18 L18.5584816,18 C18.988912,18 19.3710508,17.7245699 19.5071649,17.3162278 L19.8097832,16.4083726 L18.9685394,15.8475433 C17.7594798,15.0415036 16.9608869,13.7493532 16.780651,12.3074655 L16.0077221,6.12403473 L16,6 C16,3.790861 14.209139,2 12,2 C9.790861,2 8,3.790861 8,6 L7.99227788,6.12403473 L7.21934903,12.3074655 C7.03911306,13.7493532 6.24052021,15.0415036 5.03146062,15.8475433 L4.19021675,16.4083726 L4.49283514,17.3162278 Z M4.50076194,7.02726054 C4.50016464,7.03626746 4.49973579,7.0427343 4.49935207,7.04822996 C4.49971195,7.04336175 4.50017988,7.03641954 4.50076194,7.02726054 Z M4.49526393,7.09720963 C4.44157653,7.64687872 3.95245946,8.04895132 3.40279037,7.99526393 C2.86478911,7.94271616 2.46818477,7.47302824 2.50193033,6.93770841 C2.50005128,6.92838519 2.54221646,6.09636825 2.57487493,5.70780444 C2.63762064,4.9612687 2.73937631,4.24280419 2.89567775,3.55910064 C3.07101765,2.79211786 3.30654765,2.10978648 3.61863503,1.52756398 C3.87955424,1.04079955 4.48567159,0.857715823 4.97243602,1.11863503 C5.45920045,1.37955424 5.64228418,1.98567159 5.38136497,2.47243602 C5.16320502,2.87942983 4.98391,3.39884825 4.84537844,4.00482164 C4.71237334,4.58662088 4.623303,5.21551831 4.56784787,5.87531217 C4.53606892,6.25341173 4.49141172,7.155641 4.49935207,7.04822996 C4.49837514,7.06222142 4.49769074,7.06991805 4.49526393,7.09720963 Z M20.5972096,7.99526393 C20.0475405,8.04895132 19.5584235,7.64687872 19.5047361,7.09720963 C19.5019629,7.06602352 19.501465,7.06042381 19.5002059,7.04178039 C19.509983,7.18388315 19.4644262,6.25930283 19.4321521,5.87531217 C19.376697,5.21551831 19.2876267,4.58662088 19.1546216,4.00482164 C19.01609,3.39884825 18.836795,2.87942983 18.618635,2.47243602 C18.3577158,1.98567159 18.5407995,1.37955424 19.027564,1.11863503 C19.5143284,0.857715823 20.1204458,1.04079955 20.381365,1.52756398 C20.6934523,2.10978648 20.9289823,2.79211786 21.1043222,3.55910064 C21.2606237,4.24280419 21.3623794,4.9612687 21.4251251,5.70780444 C21.4577835,6.09636825 21.4999487,6.92838519 21.4980697,6.93770841 C21.5318152,7.47302824 21.1352109,7.94271616 20.5972096,7.99526393 Z M19.4992381,7.02726054 C19.49962,7.03327094 19.4999528,7.03832671 19.5002382,7.0424682 L19.4992381,7.02726054 Z M12,3 C12.5522847,3 13,3.44771525 13,4 C13,4.55228475 12.5522847,5 12,5 C11.4477153,5 11,5.44771525 11,6 C11,6.55228475 10.5522847,7 10,7 C9.44771525,7 9,6.55228475 9,6 C9,4.34314575 10.3431458,3 12,3 Z M11,24 C10.4477153,24 10,23.5522847 10,23 C10,22.4477153 10.4477153,22 11,22 L13,22 C13.5522847,22 14,22.4477153 14,23 C14,23.5522847 13.5522847,24 13,24 L11,24 Z M15,14 C15.5522847,14 16,14.4477153 16,15 C16,15.5522847 15.5522847,16 15,16 L9,16 C8.44771525,16 8,15.5522847 8,15 C8,14.4477153 8.44771525,14 9,14 L15,14 Z" id="Combined-Shape" fill="#111816" fill-rule="nonzero"></path>
                            </g>
                        </g>
                    </g>
                </g>
            </g>
        </g>
    </g>
</svg>