<?xml version="1.0" encoding="UTF-8"?>
<svg width="34px" height="32px" viewBox="0 0 34 32" version="1.1" xmlns="http://www.w3.org/2000/svg" xmlns:xlink="http://www.w3.org/1999/xlink">
    <!-- Generator: Sketch 57.1 (83088) - https://sketch.com -->
    <title>Icon - Suggestion Box</title>
    <desc>Created with Sketch.</desc>
    <g id="Desktop" stroke="none" stroke-width="1" fill="none" fill-rule="evenodd">
        <g id="Home-(Admin)" transform="translate(-678.000000, -124.000000)">
            <g id="Avg.-Happiness-2" transform="translate(563.000000, 79.000000)">
                <g id="Avg.-Happiness">
                    <g id="Icon" transform="translate(96.000000, 25.000000)">
                        <g id="Icon---Issue" transform="translate(19.000000, 19.000000)">
                            <g id="Group">
                                <rect id="Rectangle" x="0" y="0" width="34" height="34"></rect>
                                <path d="M18.4166667,18.4169642 C18.4166667,19.1993676 17.7824034,19.8336309 17,19.8336309 C16.2175966,19.8336309 15.5833333,19.1993676 15.5833333,18.4169642 L15.5833333,12.7502976 C15.5833333,11.9678942 16.2175966,11.3336309 17,11.3336309 C17.7824034,11.3336309 18.4166667,11.9678942 18.4166667,12.7502976 L18.4166667,18.4169642 Z M24.0833333,29.7502976 C24.8657367,29.7502976 25.5,30.3845608 25.5,31.1669642 C25.5,31.9493676 24.8657367,32.5836309 24.0833333,32.5836309 L4.23373214,32.5836309 C1.89290415,32.5836309 0,30.6752003 0,28.3267919 C0,27.5913319 0.189513588,26.868282 0.550243084,26.2281904 L13.3162667,3.57569424 C14.4702396,1.52804279 17.0594277,0.809229903 19.0955858,1.97562743 C19.7587817,2.35553411 20.3072315,2.90848256 20.6832448,3.57569424 L33.4492685,26.2281904 C34.5994416,28.2690994 33.891008,30.8629348 31.8616094,32.0254602 C31.2231419,32.3912014 30.5008644,32.5836309 29.7657794,32.5836309 C28.983376,32.5836309 28.3491127,31.9493676 28.3491127,31.1669642 C28.3491127,30.3845608 28.983376,29.7502976 29.7657794,29.7502976 C30.006504,29.7502976 30.2433067,29.6872085 30.4532631,29.5669366 C31.1293044,29.1796715 31.367931,28.3059717 30.9809225,27.6192496 L18.2148988,4.96675346 C18.0893005,4.74388731 17.9068799,4.55997041 17.6872394,4.43415105 C17.0179578,4.0507582 16.1678215,4.28677385 15.7846127,4.96675346 L3.0185891,27.6192496 C2.89725953,27.8345412 2.83333333,28.0784384 2.83333333,28.3267919 C2.83333333,29.1155513 3.46291552,29.7502976 4.23373214,29.7502976 L24.0833333,29.7502976 Z M17,26.9169642 C15.4351932,26.9169642 14.1666667,25.6484377 14.1666667,24.0836309 C14.1666667,22.5188241 15.4351932,21.2502976 17,21.2502976 C18.5648068,21.2502976 19.8333333,22.5188241 19.8333333,24.0836309 C19.8333333,25.6484377 18.5648068,26.9169642 17,26.9169642 Z" id="Combined-Shape" fill="#E64747"></path>
                            </g>
                        </g>
                    </g>
                </g>
            </g>
        </g>
    </g>
</svg>