<?xml version="1.0" encoding="UTF-8"?>
<svg width="24px" height="24px" viewBox="0 0 24 24" version="1.1" xmlns="http://www.w3.org/2000/svg" xmlns:xlink="http://www.w3.org/1999/xlink">
    <!-- Generator: Sketch 56.3 (81716) - https://sketch.com -->
    <title>Icon - Menu</title>
    <desc>Created with Sketch.</desc>
    <g id="Icon---Menu" stroke="none" stroke-width="1" fill="none" fill-rule="evenodd">
        <path d="M1,4 L23,4 C23.5522847,4 24,4.44771525 24,5 C24,5.55228475 23.5522847,6 23,6 L1,6 C0.44771525,6 6.76353751e-17,5.55228475 0,5 C-6.76353751e-17,4.44771525 0.44771525,4 1,4 Z M1,11 L15,11 C15.5522847,11 16,11.4477153 16,12 C16,12.5522847 15.5522847,13 15,13 L1,13 C0.44771525,13 6.76353751e-17,12.5522847 0,12 C-6.76353751e-17,11.4477153 0.44771525,11 1,11 Z M1,18 L7,18 C7.55228475,18 8,18.4477153 8,19 C8,19.5522847 7.55228475,20 7,20 L1,20 C0.44771525,20 6.76353751e-17,19.5522847 0,19 C-6.76353751e-17,18.4477153 0.44771525,18 1,18 Z" id="Combined-Shape" fill="#111816" fill-rule="nonzero"></path>
    </g>
</svg>